<svg width="20" height="20" viewBox="0 0 20 20" fill="none" xmlns="http://www.w3.org/2000/svg">
<path d="M17.2219 1.667H15.5548V0H14.4437V1.667H5.55528V0H4.44423V1.667H2.77813C1.24636 1.667 0 2.91329 0 4.44499V17.222C0 18.7537 1.24636 20 2.77813 20H17.2219C18.7536 20 20 18.7537 20 17.222V7.222V6.111V4.44401C19.999 2.9123 18.7527 1.667 17.2219 1.667ZM18.888 17.221C18.888 18.1394 18.1403 18.887 17.2219 18.887H2.77813C1.85867 18.887 1.11106 18.1394 1.11106 17.221V7.222H18.888V17.221ZM18.888 6.111H1.11106V4.44401C1.11106 3.52459 1.85867 2.77701 2.77813 2.77701H4.44521V3.88801H5.55528V2.778H14.4437V3.889H15.5548V2.778H17.2219C18.1403 2.778 18.888 3.52459 18.888 4.44401V6.111Z" fill="#3693C3"/>
</svg>
