<svg width="27" height="35" viewBox="0 0 27 35" fill="none" xmlns="http://www.w3.org/2000/svg">
<path d="M9.43621 17.3529C9.8343 17.3529 10.2324 17.2009 10.5361 16.8971C11.144 16.29 11.144 15.3048 10.5361 14.6973L6.0718 10.2325H25.0954C25.9546 10.2325 26.6511 9.53597 26.6511 8.67677C26.6511 7.81757 25.9546 7.12102 25.0954 7.12102H6.07139L10.5357 2.65547C11.1436 2.04797 11.1436 1.06231 10.5357 0.455624C9.92782 -0.151875 8.94216 -0.151875 8.33589 0.455624L1.21588 7.57645C0.608379 8.18394 0.608379 9.16879 1.21588 9.77629L8.33629 16.8971C8.64004 17.2009 9.03772 17.3529 9.43621 17.3529Z" fill="#434343"/>
<path d="M26.1955 24.9302L19.0751 17.8086C18.4676 17.2011 17.4831 17.2011 16.8752 17.8086C16.2673 18.4157 16.2673 19.4009 16.8752 20.0084L21.3396 24.474H2.316C1.4568 24.474 0.760254 25.1705 0.760254 26.0301C0.760254 26.8889 1.4568 27.5855 2.316 27.5855H21.3396L16.8752 32.0519C16.2673 32.6594 16.2673 33.645 16.8752 34.2517C17.179 34.5555 17.5775 34.7075 17.9751 34.7075C18.3732 34.7075 18.7721 34.5555 19.0751 34.2517L26.1955 27.1301C26.803 26.5226 26.803 25.5377 26.1955 24.9302Z" fill="#434343"/>
</svg>
