<svg width="25" height="25" viewBox="0 0 25 25" fill="none" xmlns="http://www.w3.org/2000/svg">
<path d="M9.90591 3.63489C6.46528 3.63489 3.66284 6.43733 3.66284 9.87795C3.66284 10.4606 4.13454 10.9323 4.71723 10.9323C5.29991 10.9323 5.77161 10.4606 5.77161 9.87795C5.77161 7.57495 7.63065 5.71591 9.93365 5.71591C10.5163 5.71591 10.988 5.24421 10.988 4.66152C10.988 4.07884 10.4608 3.63489 9.90591 3.63489Z" fill="white"/>
<path d="M24.1676 20.0888L18.6182 14.5394C19.3674 13.1521 19.7836 11.5705 19.7836 9.87791C19.7836 4.43951 15.3441 0 9.90566 0C4.46726 0 0 4.43951 0 9.90566C0 15.3718 4.43951 19.8113 9.90566 19.8113C11.5982 19.8113 13.1798 19.3951 14.5671 18.6459L20.1165 24.1953C20.616 24.6948 21.3929 25 22.1976 25C22.919 25 23.6404 24.7503 24.1953 24.1953C25.333 23.0022 25.1387 21.0599 24.1676 20.0888ZM2.08102 9.90566C2.08102 5.60488 5.57714 2.08102 9.90566 2.08102C14.2342 2.08102 17.7303 5.57714 17.7303 9.90566C17.7303 14.2342 14.2064 17.7026 9.90566 17.7026C5.60488 17.7026 2.08102 14.2064 2.08102 9.90566ZM22.697 22.697C22.364 23.03 21.6981 22.8357 21.5594 22.697L16.2875 17.4251C16.7037 17.0921 17.0644 16.7037 17.4251 16.2875L22.697 21.5594C22.8357 21.6981 23.03 22.364 22.697 22.697Z" fill="white"/>
</svg>
