<svg width="25" height="34" viewBox="0 0 25 34" fill="none" xmlns="http://www.w3.org/2000/svg">
<path fill-rule="evenodd" clip-rule="evenodd" d="M12.5 5.26916e-06C19.4036 5.26916e-06 25 5.8987 25 13.1753C25 15.5925 24.2125 18.0943 23.0863 20.4467C21.9569 22.8075 20.4606 25.0755 18.9782 27.0412C17.4945 29.0102 16.0123 30.6919 14.902 31.8825C14.346 32.4768 13.8829 32.9499 13.5569 33.2753C13.3868 33.4463 13.2041 33.609 13.0387 33.7833C12.7315 34.0722 12.2684 34.0722 11.9613 33.7833L11.9581 33.78C11.9329 33.7568 11.7471 33.5808 11.4431 33.2753C11.1171 32.9499 10.654 32.4768 10.098 31.8824C8.98755 30.6921 7.50538 29.0103 6.02179 27.0412C4.53962 25.0755 3.0433 22.8077 1.91374 20.4467C0.787537 18.0942 0 15.5923 0 13.1753C0 5.89869 5.59644 5.26916e-06 12.5 5.26916e-06ZM12.5 1.70004C6.48797 1.70004 1.61298 6.83839 1.61298 13.1753C1.61298 15.2239 2.28713 17.4517 3.35346 19.6817C4.41664 21.9047 5.84369 24.0729 7.2849 25.9838C8.72453 27.893 10.1657 29.5299 11.2478 30.6903C11.7597 31.2382 12.1897 31.6781 12.5 31.9886C12.8103 31.6781 13.2403 31.2382 13.7523 30.6903C14.8343 29.5298 16.2756 27.8929 17.7152 25.9838C19.1564 24.0729 20.5834 21.9046 21.6466 19.6817C22.713 17.4521 23.3871 15.2242 23.3871 13.1753C23.3871 6.83839 18.5121 1.70004 12.5 1.70004Z" fill="#3693C3"/>
<path fill-rule="evenodd" clip-rule="evenodd" d="M9.64477 7.65306C9.90842 7.39292 10.2911 7.33203 10.6109 7.49993L15.4347 10.0349C15.4789 10.0571 15.518 10.0589 15.5504 10.0497L17.0489 9.61428C18.6953 9.13644 20.3282 10.284 20.7637 12.0478L20.8606 12.4408C21.0273 13.116 20.2449 13.9592 19.5476 14.1621L8.38774 17.4056C7.42673 17.6842 6.92149 17.0403 6.54558 16.0901L4.97392 12.1308C4.87356 11.8799 4.88037 11.5921 4.99093 11.3467C5.09978 11.0995 5.30389 10.9168 5.54881 10.8449L6.35506 10.6105C7.0201 10.4187 7.7141 10.6345 8.19718 11.1437L8.97452 11.9611L10.3982 11.5478L9.41505 8.68072C9.29088 8.31911 9.38283 7.91137 9.64477 7.65306ZM12.3646 11.8615C12.4496 12.1105 12.4343 12.3873 12.322 12.6235C12.2098 12.8615 12.0108 13.0349 11.7743 13.1031L8.94739 13.9242C8.65143 14.0109 8.33678 13.9223 8.11562 13.6898L7.03892 12.5552L8.14454 15.3429C8.20747 15.5016 8.32994 15.5274 8.38777 15.5108L19.046 12.4131C18.7976 11.6456 18.1002 11.2655 17.4981 11.439L16.0013 11.8744C15.5557 12.0035 15.0879 11.9519 14.6763 11.736L11.8034 10.2268L12.3646 11.8615Z" fill="#3693C3"/>
<path fill-rule="evenodd" clip-rule="evenodd" d="M12.5 3C17.7464 3 22 7.70138 22 13.5C22 19.2986 17.7464 24 12.5 24C7.25363 24 3 19.2986 3 13.5C3 7.70138 7.25363 3 12.5 3ZM12.5 4.75C8.12723 4.75 4.58333 8.66698 4.58333 13.5C4.58333 18.333 8.12727 22.25 12.5 22.25C16.8727 22.25 20.4167 18.333 20.4167 13.5C20.4167 8.66698 16.8727 4.75 12.5 4.75Z" fill="#3693C3"/>
</svg>
